<svg width="44" height="47" viewBox="0 0 44 47" fill="none" xmlns="http://www.w3.org/2000/svg">
<path d="M39.875 20.5625H35.75L36.564 17.3298C36.8679 16.124 38.0627 15.444 39.1696 15.8479L40.1693 16.2136C40.8155 16.45 41.25 17.0992 41.25 17.8292V19.0938C41.25 19.9045 40.634 20.5625 39.875 20.5625Z" fill="url(#paint0_linear_33_862)"/>
<path d="M38.5151 16.0975C38.6994 16.0975 38.8823 16.1298 39.0583 16.1945L40.0579 16.5602C40.5652 16.7453 40.9062 17.2549 40.9062 17.8277V19.0938C40.9062 19.7018 40.4443 20.1953 39.875 20.1953H36.1983L36.8954 17.4253C37.092 16.6439 37.7589 16.0975 38.5151 16.0975ZM38.5151 15.7303C37.6282 15.7303 36.8074 16.3604 36.564 17.3298L35.75 20.5625H39.875C40.634 20.5625 41.25 19.9045 41.25 19.0938V17.8277C41.25 17.0978 40.8155 16.4486 40.1693 16.2121L39.1696 15.8464C38.9524 15.7685 38.731 15.7303 38.5151 15.7303Z" fill="url(#paint1_linear_33_862)"/>
<path d="M4.125 20.5625H8.25L7.436 17.3298C7.13212 16.124 5.93725 15.444 4.83037 15.8479L3.83075 16.2136C3.1845 16.4486 2.75 17.0978 2.75 17.8277V19.0938C2.75 19.9045 3.366 20.5625 4.125 20.5625Z" fill="url(#paint2_linear_33_862)"/>
<path d="M5.48488 16.0975C6.24113 16.0975 6.90662 16.6439 7.10462 17.4238L7.80175 20.1939H4.125C3.55575 20.1939 3.09375 19.7004 3.09375 19.0923V17.8263C3.09375 17.2534 3.43475 16.7438 3.94213 16.5587L4.94175 16.193C5.11775 16.1298 5.30063 16.0975 5.48488 16.0975ZM5.48488 15.7303C5.26763 15.7303 5.04763 15.7685 4.83037 15.8478L3.83075 16.2136C3.1845 16.4486 2.75 17.0978 2.75 17.8277V19.0938C2.75 19.9045 3.366 20.5625 4.125 20.5625H8.25L7.436 17.3298C7.19263 16.3604 6.37175 15.7303 5.48488 15.7303Z" fill="url(#paint3_linear_33_862)"/>
<path d="M38.5 39.6562H35.75C34.991 39.6562 34.375 38.9983 34.375 38.1875V33.7812H39.875V38.1875C39.875 38.9983 39.259 39.6562 38.5 39.6562Z" fill="url(#paint4_linear_33_862)"/>
<path d="M39.5312 34.1484V38.1875C39.5312 38.7956 39.0693 39.2891 38.5 39.2891H35.75C35.1808 39.2891 34.7188 38.7956 34.7188 38.1875V34.1484H39.5312ZM39.875 33.7812H34.375V38.1875C34.375 38.9983 34.991 39.6562 35.75 39.6562H38.5C39.259 39.6562 39.875 38.9983 39.875 38.1875V33.7812Z" fill="url(#paint5_linear_33_862)"/>
<path d="M8.25 39.6562H5.5C4.741 39.6562 4.125 38.9983 4.125 38.1875V33.7812H9.625V38.1875C9.625 38.9983 9.009 39.6562 8.25 39.6562Z" fill="url(#paint6_linear_33_862)"/>
<path d="M9.28125 34.1484V38.1875C9.28125 38.7956 8.81925 39.2891 8.25 39.2891H5.5C4.93075 39.2891 4.46875 38.7956 4.46875 38.1875V34.1484H9.28125ZM9.625 33.7812H4.125V38.1875C4.125 38.9983 4.741 39.6562 5.5 39.6562H8.25C9.009 39.6562 9.625 38.9983 9.625 38.1875V33.7812Z" fill="url(#paint7_linear_33_862)"/>
<path d="M37.125 19.0938L34.9539 10.9745C34.5812 9.58359 33.5225 8.52756 32.1943 8.25291C30.184 7.83872 26.7864 7.34375 22 7.34375C17.2136 7.34375 13.816 7.83872 11.8071 8.25291C10.4775 8.52756 9.41875 9.58359 9.04612 10.9745L6.875 19.0938L5.7365 20.3099C4.70387 21.4129 4.125 22.9066 4.125 24.465V36.0372C4.125 36.0372 11.0041 36.7188 22 36.7188C32.9959 36.7188 39.875 35.8551 39.875 35.8551V24.4635C39.875 22.9052 39.2961 21.4114 38.2635 20.3099L37.125 19.0938Z" fill="url(#paint8_linear_33_862)"/>
<path d="M22 7.71094C26.7589 7.71094 30.1345 8.2015 32.1282 8.61422C33.3272 8.86244 34.2829 9.80537 34.6225 11.0758L36.7936 19.1951L36.8184 19.2862L36.8816 19.3537L38.0201 20.5698C38.9936 21.6097 39.5299 22.9933 39.5299 24.465V35.5261C38.0834 35.6877 31.5686 36.3516 21.9986 36.3516C12.4424 36.3516 5.93175 35.8287 4.46738 35.6994V24.465C4.46738 22.9933 5.00363 21.6112 5.97713 20.5698L7.11563 19.3537L7.17888 19.2862L7.20362 19.1951L9.3775 11.0758C9.71713 9.80537 10.6741 8.86097 11.8717 8.61422C13.8655 8.2015 17.2411 7.71094 22 7.71094ZM22 7.34375C17.2136 7.34375 13.816 7.83872 11.8071 8.25291C10.4775 8.52756 9.41875 9.58359 9.04612 10.9745L6.875 19.0938L5.7365 20.3099C4.70387 21.4129 4.125 22.9066 4.125 24.465V36.0372C4.125 36.0372 11.0041 36.7188 22 36.7188C32.9959 36.7188 39.875 35.8551 39.875 35.8551V24.4635C39.875 22.9052 39.2961 21.4114 38.2635 20.3099L37.125 19.0938L34.9539 10.9745C34.5812 9.58359 33.5225 8.52756 32.1943 8.25291C30.184 7.83872 26.7864 7.34375 22 7.34375Z" fill="url(#paint9_linear_33_862)"/>
<path d="M33 23.5H11V24.9688H33V23.5Z" fill="#0A57C2"/>
<path d="M34.9468 18.0231L33.3518 11.8396C33.0713 10.7528 32.2394 9.92878 31.2013 9.7305C29.3313 9.37506 26.0492 8.89185 21.9998 8.89185C17.9504 8.89185 14.6683 9.37506 12.7983 9.7305C11.7602 9.92878 10.9283 10.7542 10.6478 11.8396L9.0528 18.0231C8.91393 18.5621 9.29343 19.0938 9.81593 19.0938H34.1823C34.7062 19.0938 35.0857 18.5621 34.9468 18.0231Z" fill="url(#paint10_linear_33_862)"/>
<path d="M21.9998 9.25903C25.9392 9.25903 29.1443 9.71288 31.1408 10.0918C32.0373 10.2622 32.7757 10.9863 33.0204 11.9366L34.6154 18.12C34.6526 18.2654 34.6251 18.4167 34.5398 18.5371C34.4546 18.6576 34.3239 18.7251 34.1837 18.7251H9.81593C9.6743 18.7251 9.54505 18.6561 9.4598 18.5371C9.37455 18.4167 9.34705 18.2654 9.38418 18.12L10.9792 11.9366C11.2239 10.9878 11.9623 10.2637 12.8588 10.0933C14.8553 9.71288 18.0604 9.25903 21.9998 9.25903ZM21.9998 8.89185C17.9504 8.89185 14.6683 9.37506 12.7983 9.7305C11.7602 9.92878 10.9283 10.7542 10.6478 11.8396L9.0528 18.0231C8.91393 18.5621 9.29343 19.0938 9.81593 19.0938H34.1823C34.7048 19.0938 35.0843 18.5621 34.9454 18.0231L33.3504 11.8396C33.0699 10.7528 32.2381 9.92878 31.1999 9.7305C29.3313 9.37506 26.0492 8.89185 21.9998 8.89185Z" fill="url(#paint11_linear_33_862)"/>
<path d="M37.125 22.7656L36.4375 22.0312C36.4375 22.0312 36.069 23.5 34.0945 23.5C33.7425 23.5 32.318 23.5 31.9729 23.5C30.5429 23.5 30.25 24.9688 30.25 24.9688C30.25 24.9688 33.4496 24.9688 34.0945 24.9688C36.0704 24.9688 36.4375 26.4375 36.4375 26.4375L37.125 25.7031C37.125 25.7031 37.0232 24.8747 36.4004 24.2344C37.0232 23.594 37.125 22.7656 37.125 22.7656Z" fill="#EDF8FF"/>
<path d="M6.875 22.7656L7.5625 22.0312C7.5625 22.0312 7.931 23.5 9.9055 23.5C10.2575 23.5 11.682 23.5 12.0271 23.5C13.4571 23.5 13.75 24.9688 13.75 24.9688C13.75 24.9688 10.5504 24.9688 9.9055 24.9688C7.931 24.9688 7.5625 26.4375 7.5625 26.4375L6.875 25.7031C6.875 25.7031 6.97675 24.8747 7.59962 24.2344C6.97675 23.594 6.875 22.7656 6.875 22.7656Z" fill="#EDF8FF"/>
<path d="M26.851 32.3125H17.149C16.7901 32.3125 16.5 32.0026 16.5 31.6192V30.0683C16.5 29.6849 16.7901 29.375 17.149 29.375H26.851C27.2099 29.375 27.5 29.6849 27.5 30.0683V31.6192C27.5 32.0026 27.2099 32.3125 26.851 32.3125Z" fill="#669EFF"/>
<defs>
<linearGradient id="paint0_linear_33_862" x1="38.5" y1="15.7098" x2="38.5" y2="20.5655" gradientUnits="userSpaceOnUse">
<stop stop-color="#7DA8FF"/>
<stop offset="0.897" stop-color="#1E68E6"/>
<stop offset="1" stop-color="#114EB5"/>
</linearGradient>
<linearGradient id="paint1_linear_33_862" x1="38.5" y1="15.7303" x2="38.5" y2="20.5625" gradientUnits="userSpaceOnUse">
<stop stop-opacity="0.02"/>
<stop offset="1" stop-opacity="0.15"/>
</linearGradient>
<linearGradient id="paint2_linear_33_862" x1="5.5" y1="15.7098" x2="5.5" y2="20.5655" gradientUnits="userSpaceOnUse">
<stop stop-color="#7DA8FF"/>
<stop offset="0.897" stop-color="#1E68E6"/>
<stop offset="1" stop-color="#114EB5"/>
</linearGradient>
<linearGradient id="paint3_linear_33_862" x1="5.5" y1="15.7303" x2="5.5" y2="20.5625" gradientUnits="userSpaceOnUse">
<stop stop-opacity="0.02"/>
<stop offset="1" stop-opacity="0.15"/>
</linearGradient>
<linearGradient id="paint4_linear_33_862" x1="37.125" y1="33.7563" x2="37.125" y2="39.6592" gradientUnits="userSpaceOnUse">
<stop stop-color="#74757C"/>
<stop offset="1" stop-color="#45464A"/>
</linearGradient>
<linearGradient id="paint5_linear_33_862" x1="37.125" y1="33.7812" x2="37.125" y2="39.6562" gradientUnits="userSpaceOnUse">
<stop stop-opacity="0.02"/>
<stop offset="1" stop-opacity="0.15"/>
</linearGradient>
<linearGradient id="paint6_linear_33_862" x1="6.875" y1="33.7563" x2="6.875" y2="39.6592" gradientUnits="userSpaceOnUse">
<stop stop-color="#74757C"/>
<stop offset="1" stop-color="#45464A"/>
</linearGradient>
<linearGradient id="paint7_linear_33_862" x1="6.875" y1="33.7812" x2="6.875" y2="39.6562" gradientUnits="userSpaceOnUse">
<stop stop-opacity="0.02"/>
<stop offset="1" stop-opacity="0.15"/>
</linearGradient>
<linearGradient id="paint8_linear_33_862" x1="22" y1="7.21597" x2="22" y2="36.732" gradientUnits="userSpaceOnUse">
<stop stop-color="#7DCFFF"/>
<stop offset="0.004" stop-color="#7ACDFF"/>
<stop offset="0.047" stop-color="#58BAFA"/>
<stop offset="0.094" stop-color="#3CAAF6"/>
<stop offset="0.144" stop-color="#279DF4"/>
<stop offset="0.2" stop-color="#1895F2"/>
<stop offset="0.264" stop-color="#0F90F0"/>
<stop offset="0.36" stop-color="#0C8EF0"/>
<stop offset="0.377" stop-color="#289BF4"/>
<stop offset="0.399" stop-color="#42A6F8"/>
<stop offset="0.422" stop-color="#57AFFB"/>
<stop offset="0.448" stop-color="#65B5FD"/>
<stop offset="0.48" stop-color="#6DB9FF"/>
<stop offset="0.533" stop-color="#70BAFF"/>
<stop offset="0.619" stop-color="#1B82F7"/>
<stop offset="0.893" stop-color="#1B82F7"/>
<stop offset="1" stop-color="#1267C7"/>
</linearGradient>
<linearGradient id="paint9_linear_33_862" x1="22" y1="7.34375" x2="22" y2="36.7188" gradientUnits="userSpaceOnUse">
<stop stop-opacity="0.02"/>
<stop offset="1" stop-opacity="0.15"/>
</linearGradient>
<linearGradient id="paint10_linear_33_862" x1="21.9998" y1="8.84778" x2="21.9998" y2="19.0982" gradientUnits="userSpaceOnUse">
<stop stop-color="#456CA1"/>
<stop offset="1" stop-color="#3B6094"/>
</linearGradient>
<linearGradient id="paint11_linear_33_862" x1="21.9998" y1="8.89185" x2="21.9998" y2="19.0938" gradientUnits="userSpaceOnUse">
<stop stop-opacity="0.02"/>
<stop offset="1" stop-opacity="0.15"/>
</linearGradient>
</defs>
</svg>
