<svg width="28" height="32" viewBox="0 0 28 32" fill="none" xmlns="http://www.w3.org/2000/svg">
<g clip-path="url(#clip0_81_2309)">
<path d="M11.6667 2.66675V5.33341H15.1667V8.00008H17.5V5.33341H21V2.66675H11.6667ZM11.6667 10.6667C11.3573 10.6668 11.0606 10.8073 10.8418 11.0574L8.85026 13.3334H5.83333C5.52392 13.3335 5.2272 13.4739 5.00841 13.724C4.78962 13.974 4.6667 14.3131 4.66667 14.6667V22.6667C4.6667 23.0204 4.78962 23.3595 5.00841 23.6095C5.2272 23.8596 5.52392 24 5.83333 24.0001H7.81348L11.0195 26.4428C11.2112 26.5888 11.4363 26.6667 11.6667 26.6667H17.5C17.7522 26.6669 17.9976 26.5737 18.1995 26.4011L22.8662 22.4011C23.0113 22.2769 23.1291 22.1157 23.2102 21.9303C23.2912 21.745 23.3334 21.5406 23.3333 21.3334V12.0001C23.3333 11.6465 23.2104 11.3074 22.9916 11.0573C22.7728 10.8073 22.4761 10.6668 22.1667 10.6667H11.6667ZM25.6667 12.0001V20.0001H28V12.0001H25.6667ZM12.1497 13.3334H15.1667H21V20.6667L17.1104 24.0001H14H12.0199L8.8138 21.5574C8.62216 21.4114 8.39699 21.3334 8.16667 21.3334H7V16.0001H9.33333C9.64273 16 9.93944 15.8595 10.1582 15.6095L12.1497 13.3334ZM14 24.0001L17.5 17.3334H15.1667V13.3334L11.6667 20.0001H14V24.0001ZM0 14.6667V21.3334H2.33333V14.6667H0Z" fill="white"/>
</g>
<defs>
<clipPath id="clip0_81_2309">
<rect width="28" height="32" fill="white"/>
</clipPath>
</defs>
</svg>
