<svg width="25" height="25" viewBox="0 0 25 25" fill="none" xmlns="http://www.w3.org/2000/svg">
<path d="M12.4999 2.08337C6.7562 2.08337 2.08325 6.75633 2.08325 12.5C2.08325 18.2438 6.7562 22.9167 12.4999 22.9167C18.2436 22.9167 22.9166 18.2438 22.9166 12.5C22.9166 6.75633 18.2436 2.08337 12.4999 2.08337ZM12.4999 3.64587C17.3992 3.64587 21.3541 7.60077 21.3541 12.5C21.3541 17.3993 17.3992 21.3542 12.4999 21.3542C7.60064 21.3542 3.64575 17.3993 3.64575 12.5C3.64575 7.60077 7.60064 3.64587 12.4999 3.64587ZM7.552 8.33337C7.44848 8.33191 7.34569 8.35104 7.24962 8.38964C7.15356 8.42825 7.06612 8.48556 6.99239 8.55825C6.91866 8.63094 6.86012 8.71756 6.82016 8.81307C6.7802 8.90859 6.75962 9.01109 6.75962 9.11462C6.75962 9.21816 6.7802 9.32066 6.82016 9.41618C6.86012 9.51169 6.91866 9.59831 6.99239 9.671C7.06612 9.74369 7.15356 9.801 7.24962 9.83961C7.34569 9.87821 7.44848 9.89734 7.552 9.89587H17.4478C17.5514 9.89734 17.6541 9.87821 17.7502 9.83961C17.8463 9.801 17.9337 9.74369 18.0074 9.671C18.0812 9.59831 18.1397 9.51169 18.1797 9.41618C18.2196 9.32066 18.2402 9.21816 18.2402 9.11462C18.2402 9.01109 18.2196 8.90859 18.1797 8.81307C18.1397 8.71756 18.0812 8.63094 18.0074 8.55825C17.9337 8.48556 17.8463 8.42825 17.7502 8.38964C17.6541 8.35104 17.5514 8.33191 17.4478 8.33337H7.552ZM8.59367 11.9792C8.49014 11.9777 8.38736 11.9969 8.29129 12.0355C8.19522 12.0741 8.10778 12.1314 8.03406 12.2041C7.96033 12.2768 7.90179 12.3634 7.86183 12.4589C7.82187 12.5544 7.80129 12.6569 7.80129 12.7605C7.80129 12.864 7.82187 12.9665 7.86183 13.062C7.90179 13.1575 7.96033 13.2441 8.03406 13.3168C8.10778 13.3895 8.19522 13.4468 8.29129 13.4854C8.38736 13.524 8.49014 13.5432 8.59367 13.5417H16.4062C16.5097 13.5432 16.6125 13.524 16.7085 13.4854C16.8046 13.4468 16.8921 13.3895 16.9658 13.3168C17.0395 13.2441 17.098 13.1575 17.138 13.062C17.178 12.9665 17.1985 12.864 17.1985 12.7605C17.1985 12.6569 17.178 12.5544 17.138 12.4589C17.098 12.3634 17.0395 12.2768 16.9658 12.2041C16.8921 12.1314 16.8046 12.0741 16.7085 12.0355C16.6125 11.9969 16.5097 11.9777 16.4062 11.9792H8.59367ZM9.63533 15.625C9.53181 15.6236 9.42903 15.6427 9.33296 15.6813C9.23689 15.7199 9.14945 15.7772 9.07572 15.8499C9.002 15.9226 8.94345 16.0092 8.90349 16.1047C8.86353 16.2003 8.84296 16.3028 8.84296 16.4063C8.84296 16.5098 8.86353 16.6123 8.90349 16.7078C8.94345 16.8034 9.002 16.89 9.07572 16.9627C9.14945 17.0354 9.23689 17.0927 9.33296 17.1313C9.42903 17.1699 9.53181 17.189 9.63533 17.1875H15.3645C15.468 17.189 15.5708 17.1699 15.6669 17.1313C15.7629 17.0927 15.8504 17.0354 15.9241 16.9627C15.9978 16.89 16.0564 16.8034 16.0963 16.7078C16.1363 16.6123 16.1569 16.5098 16.1569 16.4063C16.1569 16.3028 16.1363 16.2003 16.0963 16.1047C16.0564 16.0092 15.9978 15.9226 15.9241 15.8499C15.8504 15.7772 15.7629 15.7199 15.6669 15.6813C15.5708 15.6427 15.468 15.6236 15.3645 15.625H9.63533Z" fill="#CCCCCC"/>
</svg>
