<svg width="70" height="53" viewBox="0 0 70 53" fill="none" xmlns="http://www.w3.org/2000/svg">
<path d="M20.0919 8.83337C17.3636 8.83337 14.9076 10.1247 13.9509 12.0596L5.96998 28.1477C5.87865 28.334 5.83234 28.5312 5.83327 28.7299V41.9584C5.83327 44.3783 8.47052 46.375 11.6666 46.375H58.3333C61.5293 46.375 64.1666 44.3783 64.1666 41.9584V28.7299C64.1675 28.5312 64.1212 28.334 64.0299 28.1477L56.0489 12.0596C55.0922 10.1247 52.6362 8.83337 49.908 8.83337H20.0919ZM20.0919 12.1459H49.908C50.8256 12.1459 51.6322 12.571 51.9531 13.2198L59.6264 28.7084H46.3191C45.8988 28.708 45.4872 28.7993 45.1336 28.9714C44.78 29.1436 44.4994 29.3891 44.3253 29.6788C42.7154 32.3532 39.1775 34.2292 34.9999 34.2292C30.8224 34.2292 27.2845 32.3532 25.6746 29.6788C25.5005 29.3891 25.2199 29.1436 24.8663 28.9714C24.5127 28.7993 24.1011 28.708 23.6808 28.7084H10.3678L18.0468 13.2198C18.3676 12.571 19.1743 12.1459 20.0919 12.1459ZM10.2083 32.0209H22.7921C25.3529 35.2152 29.6992 37.5417 34.9999 37.5417C40.3006 37.5417 44.6469 35.2152 47.2078 32.0209H59.7916V41.9584C59.7916 42.586 59.1622 43.0625 58.3333 43.0625H11.6666C10.8377 43.0625 10.2083 42.586 10.2083 41.9584V32.0209Z" fill="#CCCCCC"/>
</svg>
