<svg width="20" height="20" viewBox="0 0 20 20" fill="none" xmlns="http://www.w3.org/2000/svg">
<g clip-path="url(#clip0_100_4945)">
<path d="M10.0008 0.803223C4.9245 0.803223 0.800781 4.92694 0.800781 10.0032C0.800781 15.0795 4.9245 19.2032 10.0008 19.2032C15.0771 19.2032 19.2008 15.0795 19.2008 10.0032C19.2008 4.92694 15.0771 0.803223 10.0008 0.803223ZM10.0008 1.60322C14.6447 1.60322 18.4008 5.35929 18.4008 10.0032C18.4008 12.2963 17.4824 14.3704 15.9961 15.8853C15.2642 15.3479 14.372 15.0783 13.6164 14.8095C13.1909 14.6581 12.8082 14.508 12.5289 14.3407C12.2614 14.1805 12.1128 14.0159 12.0344 13.8267C11.9976 13.3679 12.0051 12.9986 12.0078 12.5626C12.0563 12.5143 12.1184 12.4804 12.168 12.422C12.2848 12.2841 12.4037 12.1166 12.5172 11.9282C12.7118 11.6052 12.8535 11.2101 12.9328 10.8095C13.054 10.7477 13.1835 10.7343 13.282 10.6087C13.464 10.3767 13.5869 10.0503 13.6414 9.59541C13.6898 9.19379 13.5604 8.91756 13.3938 8.70557C13.573 8.11964 13.7949 7.18783 13.7195 6.22354C13.6781 5.69301 13.5446 5.159 13.2234 4.71494C12.9169 4.29099 12.4191 3.98624 11.782 3.87588C11.3774 3.41649 10.7347 3.2001 9.96641 3.2001H9.9625H9.95938C8.23828 3.23169 7.1278 3.94403 6.65234 5.03057C6.20023 6.06376 6.29742 7.35001 6.62188 8.68916C6.44746 8.90117 6.31084 9.18267 6.36016 9.59541C6.41489 10.0501 6.53768 10.3767 6.71953 10.6087C6.81803 10.7343 6.9475 10.7477 7.06875 10.8095C7.1481 11.2098 7.28976 11.6043 7.48438 11.9274C7.59788 12.1159 7.71668 12.2832 7.83359 12.4212C7.88313 12.4796 7.94523 12.5143 7.99375 12.5626C7.99635 12.9984 8.00374 13.3675 7.96719 13.8267C7.8889 14.0152 7.74053 14.1799 7.47344 14.3407C7.19454 14.5086 6.81239 14.6595 6.3875 14.8118C5.6327 15.0823 4.74103 15.3539 4.00703 15.8868C2.51983 14.3719 1.60078 12.2971 1.60078 10.0032C1.60078 5.35929 5.35685 1.60322 10.0008 1.60322ZM9.96953 4.00088C10.7072 4.00164 11.1713 4.22004 11.2984 4.44307L11.3961 4.61416L11.5906 4.64072C12.0931 4.71054 12.3738 4.90553 12.575 5.18369C12.7762 5.46185 12.8878 5.85006 12.9219 6.28604C12.99 7.15799 12.7404 8.18766 12.582 8.66416L12.4812 8.9665L12.7539 9.13213C12.7262 9.11524 12.8821 9.20754 12.8469 9.5001C12.8042 9.85602 12.7133 10.0373 12.6523 10.1149C12.5914 10.1926 12.5654 10.1827 12.5719 10.1821L12.2422 10.2095L12.207 10.5384C12.1769 10.821 12.0179 11.2064 11.832 11.5149C11.7391 11.6692 11.6402 11.8066 11.557 11.9048C11.4739 12.0029 11.3853 12.0637 11.4187 12.0462L11.2047 12.1579V12.4001C11.2047 12.9298 11.1831 13.363 11.2391 13.9798L11.2438 14.0329L11.2625 14.0829C11.4199 14.5065 11.7485 14.8054 12.118 15.0267C12.4874 15.2479 12.9113 15.4078 13.3484 15.5634C14.0688 15.8197 14.8198 16.072 15.3922 16.4446C13.9337 17.6663 12.055 18.4032 10.0008 18.4032C7.94735 18.4032 6.06921 17.667 4.61094 16.4462C5.18661 16.0757 5.93868 15.8227 6.65781 15.5649C7.09463 15.4084 7.51741 15.2478 7.88594 15.0259C8.25447 14.804 8.58187 14.5052 8.73906 14.0829L8.75781 14.0329L8.7625 13.9798C8.818 13.3635 8.79688 12.9302 8.79688 12.4001V12.1579L8.58281 12.0454C8.61631 12.0629 8.52773 12.0022 8.44453 11.904C8.36134 11.8058 8.26248 11.6692 8.16953 11.5149C7.98364 11.2063 7.82469 10.8206 7.79453 10.5384L7.75938 10.2095L7.42969 10.1821C7.43587 10.1826 7.41006 10.1926 7.34922 10.1149C7.28837 10.0373 7.19755 9.85617 7.15469 9.5001C7.11972 9.20748 7.2774 9.11405 7.24766 9.13213L7.50156 8.97822L7.42734 8.68994C7.08316 7.36526 7.03111 6.15995 7.38516 5.35088C7.73885 4.54261 8.44735 4.02981 9.96953 4.00088Z" fill="white"/>
</g>
<defs>
<clipPath id="clip0_100_4945">
<rect width="20" height="20" fill="white"/>
</clipPath>
</defs>
</svg>
