<svg width="20" height="20" viewBox="0 0 20 20" fill="none" xmlns="http://www.w3.org/2000/svg">
<path d="M8.05566 1.66675L7.64714 3.76961C6.96033 4.02863 6.32964 4.39169 5.77702 4.84546L3.75716 4.14884L1.81055 7.51798L3.42839 8.92423C3.36619 9.30609 3.33398 9.65995 3.33398 10.0001C3.33398 10.3407 3.36716 10.6939 3.42839 11.0759V11.0776L1.81055 12.4838L3.75716 15.8513L5.77539 15.1563C6.32806 15.6103 6.96018 15.9714 7.64714 16.2305L8.05566 18.3334H11.9456L12.3542 16.2305C13.0414 15.9714 13.6714 15.6089 14.2243 15.1547L16.2441 15.8513L18.1891 12.4838L16.5729 11.0759C16.6351 10.6941 16.6673 10.3402 16.6673 10.0001C16.6673 9.66046 16.6349 9.30706 16.5729 8.92586V8.92423L18.1908 7.51636L16.2441 4.14884L14.2259 4.84383C13.6732 4.38982 13.0411 4.02878 12.3542 3.76961L11.9456 1.66675H8.05566ZM9.42936 3.33341H10.5719L10.8958 5.00008L11.765 5.32886C12.2889 5.52631 12.7595 5.79738 13.168 6.13289L13.8874 6.72209L15.4889 6.17196L16.0602 7.15991L14.7809 8.27319L14.9274 9.18953V9.19116C14.9784 9.50361 15.0007 9.76572 15.0007 10.0001C15.0007 10.2344 14.9784 10.4965 14.9274 10.809L14.7793 11.7253L16.0586 12.8386L15.4873 13.8282L13.8874 13.2764L13.1663 13.8673C12.7579 14.2028 12.2889 14.4739 11.765 14.6713H11.7633L10.8942 15.0001L10.5703 16.6667H9.42936L9.10547 15.0001L8.23633 14.6713C7.71244 14.4739 7.24176 14.2028 6.83333 13.8673L6.11393 13.2781L4.51237 13.8282L3.94108 12.8403L5.22201 11.7253L5.07389 10.8123V10.8106C5.02367 10.4968 5.00065 10.234 5.00065 10.0001C5.00065 9.76572 5.02294 9.50365 5.07389 9.19116L5.22201 8.27482L3.94108 7.16154L4.51237 6.17196L6.11393 6.72371L6.83333 6.13289C7.24176 5.79738 7.71244 5.52631 8.23633 5.32886L9.10547 5.00008L9.42936 3.33341ZM10.0007 6.66675C8.17022 6.66675 6.66732 8.16965 6.66732 10.0001C6.66732 11.8305 8.17022 13.3334 10.0007 13.3334C11.8311 13.3334 13.334 11.8305 13.334 10.0001C13.334 8.16965 11.8311 6.66675 10.0007 6.66675ZM10.0007 8.33341C10.9269 8.33341 11.6673 9.07385 11.6673 10.0001C11.6673 10.9263 10.9269 11.6667 10.0007 11.6667C9.07442 11.6667 8.33398 10.9263 8.33398 10.0001C8.33398 9.07385 9.07442 8.33341 10.0007 8.33341Z" fill="white"/>
</svg>
