<svg width="20" height="20" viewBox="0 0 20 20" fill="none" xmlns="http://www.w3.org/2000/svg">
<path d="M1.66602 16.6666H3.33268V17.4999C3.33268 17.9599 3.70602 18.3333 4.16602 18.3333H4.99935C5.45935 18.3333 5.83268 17.9599 5.83268 17.4999V14.1666C5.83268 13.7066 5.45935 13.3333 4.99935 13.3333H4.16602C3.70602 13.3333 3.33268 13.7066 3.33268 14.1666V14.9999H1.66602V16.6666ZM1.66602 10.8333H12.4993V11.6666C12.4993 12.1266 12.8727 12.4999 13.3327 12.4999H14.166C14.626 12.4999 14.9993 12.1266 14.9993 11.6666V8.33325C14.9993 7.87325 14.626 7.49992 14.166 7.49992H13.3327C12.8727 7.49992 12.4993 7.87325 12.4993 8.33325V9.16659H1.66602V10.8333ZM1.66602 4.99992H7.49935V5.83325C7.49935 6.29325 7.87268 6.66659 8.33268 6.66659H9.16602C9.62602 6.66659 9.99935 6.29325 9.99935 5.83325V2.49992C9.99935 2.03992 9.62602 1.66659 9.16602 1.66659H8.33268C7.87268 1.66659 7.49935 2.03992 7.49935 2.49992V3.33325H1.66602V4.99992ZM7.49935 16.6666H18.3327V14.9999H7.49935V16.6666ZM11.666 4.99992H18.3327V3.33325H11.666V4.99992ZM16.666 10.8333H18.3327V9.16659H16.666V10.8333Z" fill="white"/>
</svg>
