<svg width="20" height="20" viewBox="0 0 20 20" fill="none" xmlns="http://www.w3.org/2000/svg">
<path d="M10.0009 6.66675C7.2014 6.66675 6.35504 6.97925 6.35504 6.97925C5.76585 7.17456 4.96181 7.45451 4.63629 8.073C4.47353 8.3855 3.84528 10.127 3.30817 11.6667H2.63108C2.3251 11.6667 2.00608 11.9076 1.90192 12.2136L1.69358 12.7865C1.58942 13.0925 1.75218 13.3334 2.05817 13.3334H2.73525C2.71572 13.3855 2.60504 13.724 2.60504 13.724C2.55296 13.8152 2.50088 14.2384 2.50088 14.349V19.4011C2.50088 19.7266 2.77431 20.0001 3.09983 20.0001H5.23525C5.56077 20.0001 5.83421 19.7266 5.83421 19.4011V18.3334H14.1675V19.4011C14.1675 19.7266 14.441 20.0001 14.7665 20.0001H16.9019C17.2274 20.0001 17.5009 19.7266 17.5009 19.4011V14.349C17.5009 14.2384 17.4488 13.8152 17.3967 13.724C17.3967 13.724 17.286 13.3855 17.2665 13.3334H17.9436C18.2496 13.3334 18.4123 13.0925 18.3082 12.7865L18.0998 12.2136C17.9957 11.9076 17.6767 11.6667 17.3707 11.6667H16.6936C16.163 10.1726 15.5347 8.48315 15.3394 8.04696C15.053 7.40894 14.148 7.11922 13.6467 6.97925C13.6467 6.97925 12.8004 6.66675 10.0009 6.66675ZM10.0009 7.89071C14.2359 7.89071 14.3401 8.63615 14.3498 8.64591C14.48 9.03654 15.0041 10.2214 15.4175 11.9011C15.4175 11.9011 13.6207 12.5001 10.0009 12.5001C6.38108 12.5001 4.58421 11.9011 4.58421 11.9011C5.02366 10.0782 5.49567 9.03654 5.59983 8.75008C5.68447 8.54175 5.76585 7.89071 10.0009 7.89071ZM3.77692 14.0365C3.86155 14.0268 3.94619 14.0365 4.03733 14.0365C4.39866 14.0365 5.12783 14.3458 5.59983 14.5574C6.11416 14.7885 6.69358 14.9806 6.69358 15.3647C6.69358 15.7195 6.50804 15.8855 5.83421 15.8855H4.92275C4.12523 15.8855 3.33421 15.7683 3.33421 15.2605V14.6615C3.33421 14.2156 3.52301 14.0691 3.77692 14.0365ZM15.9644 14.0365C16.3355 14.0365 16.6675 14.0691 16.6675 14.6615V15.2605C16.6675 15.7683 15.8765 15.8855 15.079 15.8855H14.1675C13.497 15.8855 13.3082 15.7195 13.3082 15.3647C13.3082 14.9806 13.8876 14.7885 14.4019 14.5574C14.8739 14.3458 15.6031 14.0365 15.9644 14.0365Z" fill="white"/>
</svg>
