<svg width="20" height="20" viewBox="0 0 20 20" fill="none" xmlns="http://www.w3.org/2000/svg">
<path d="M10.0007 1.66675C9.31065 1.66675 8.75065 2.22675 8.75065 2.91675V3.49618C6.59497 4.05183 5.00065 6.00408 5.00065 8.33341V13.3334L3.33398 15.0001V15.8334H8.55859C8.41185 16.0867 8.33438 16.3741 8.33398 16.6667C8.33398 17.1088 8.50958 17.5327 8.82214 17.8453C9.1347 18.1578 9.55862 18.3334 10.0007 18.3334C10.4427 18.3334 10.8666 18.1578 11.1792 17.8453C11.4917 17.5327 11.6673 17.1088 11.6673 16.6667C11.6664 16.3739 11.5884 16.0865 11.4411 15.8334H16.6673V15.0001L15.0007 13.3334V8.33341C15.0007 6.00408 13.4063 4.05183 11.2507 3.49618V2.91675C11.2507 2.22675 10.6907 1.66675 10.0007 1.66675ZM10.0007 5.00008C11.839 5.00008 13.334 6.49508 13.334 8.33341V13.3334V14.0235L13.4772 14.1667H6.52409L6.66732 14.0235V13.3334V8.33341C6.66732 6.49508 8.16232 5.00008 10.0007 5.00008Z" fill="white"/>
</svg>
