<svg width="20" height="20" viewBox="0 0 20 20" fill="none" xmlns="http://www.w3.org/2000/svg">
<g clip-path="url(#clip0_100_4936)">
<path d="M10 3.33325C8.38917 3.33325 7.08333 4.63909 7.08333 6.24992C7.08333 7.86075 8.38917 9.16658 10 9.16658C11.6108 9.16658 12.9167 7.86075 12.9167 6.24992C12.9167 4.63909 11.6108 3.33325 10 3.33325ZM10 4.99992C10.6892 4.99992 11.25 5.56075 11.25 6.24992C11.25 6.93909 10.6892 7.49992 10 7.49992C9.31083 7.49992 8.75 6.93909 8.75 6.24992C8.75 5.56075 9.31083 4.99992 10 4.99992ZM3.75 5.83325C2.59917 5.83325 1.66667 6.76575 1.66667 7.91658C1.66667 9.06742 2.59917 9.99992 3.75 9.99992C4.90083 9.99992 5.83333 9.06742 5.83333 7.91658C5.83333 6.76575 4.90083 5.83325 3.75 5.83325ZM16.25 5.83325C15.0992 5.83325 14.1667 6.76575 14.1667 7.91658C14.1667 9.06742 15.0992 9.99992 16.25 9.99992C17.4008 9.99992 18.3333 9.06742 18.3333 7.91658C18.3333 6.76575 17.4008 5.83325 16.25 5.83325ZM3.75 7.2688C4.1075 7.2688 4.39779 7.55909 4.39779 7.91658C4.39779 8.27409 4.1075 8.56437 3.75 8.56437C3.3925 8.56437 3.10221 8.27409 3.10221 7.91658C3.10221 7.55909 3.3925 7.2688 3.75 7.2688ZM16.25 7.2688C16.6075 7.2688 16.8978 7.55909 16.8978 7.91658C16.8978 8.27409 16.6075 8.56437 16.25 8.56437C15.8925 8.56437 15.6022 8.27409 15.6022 7.91658C15.6022 7.55909 15.8925 7.2688 16.25 7.2688ZM10 10.8333C8.77106 10.8333 6.77152 11.2235 5.46224 11.9986C4.92794 11.796 4.34271 11.6666 3.75 11.6666C1.88583 11.6666 0 12.8313 0 14.1096V16.6666H3.75H4.16667H5H15.8333H16.25H20V14.1096C20 12.8313 18.1142 11.6666 16.25 11.6666C15.6573 11.6666 15.0721 11.796 14.5378 11.9986C13.2285 11.2235 11.2289 10.8333 10 10.8333ZM10 12.4999C11.7783 12.4999 13.8517 13.3011 14.1667 13.8053V14.9999H5.83333V13.8053C6.14833 13.3011 8.22167 12.4999 10 12.4999ZM3.75 13.3333C3.91495 13.3333 4.06392 13.3616 4.21549 13.3853C4.18454 13.5028 4.16667 13.6244 4.16667 13.7499V14.9999H3.75H1.66667V14.1747C1.82 13.9081 2.665 13.3333 3.75 13.3333ZM16.25 13.3333C17.335 13.3333 18.18 13.9081 18.3333 14.1747V14.9999H16.25H15.8333V13.7499C15.8333 13.6244 15.8155 13.5028 15.7845 13.3853C15.9361 13.3616 16.085 13.3333 16.25 13.3333Z" fill="white"/>
</g>
<defs>
<clipPath id="clip0_100_4936">
<rect width="20" height="20" fill="white"/>
</clipPath>
</defs>
</svg>
