<svg width="30" height="30" viewBox="0 0 30 30" fill="none" xmlns="http://www.w3.org/2000/svg">
<path d="M15 16.25V14.375H11.875V16.25C11.875 16.595 12.155 16.875 12.5 16.875H14.375C14.72 16.875 15 16.595 15 16.25Z" fill="#565B5E"/>
<path d="M27.5 16.25V14.375H24.375V16.25C24.375 16.595 24.655 16.875 25 16.875H26.875C27.22 16.875 27.5 16.595 27.5 16.25Z" fill="#565B5E"/>
<path d="M26.25 8.125L25.5994 4.65438C25.4331 3.7675 24.6587 3.125 23.7562 3.125H15.6187C14.7162 3.125 13.9419 3.7675 13.7756 4.65438L13.125 8.125L12.4244 8.82563C12.0725 9.1775 11.875 9.65438 11.875 10.1519V15H27.5V10.1519C27.5 9.65438 27.3025 9.1775 26.9506 8.82625L26.25 8.125Z" fill="#33C481"/>
<path d="M25.3125 11.875C25.8303 11.875 26.25 11.4553 26.25 10.9375C26.25 10.4197 25.8303 10 25.3125 10C24.7947 10 24.375 10.4197 24.375 10.9375C24.375 11.4553 24.7947 11.875 25.3125 11.875Z" fill="white"/>
<path d="M14.0625 11.875C14.5803 11.875 15 11.4553 15 10.9375C15 10.4197 14.5803 10 14.0625 10C13.5447 10 13.125 10.4197 13.125 10.9375C13.125 11.4553 13.5447 11.875 14.0625 11.875Z" fill="white"/>
<path d="M27.8125 8.75H26.25V7.8125C26.25 7.295 26.67 6.875 27.1875 6.875H28.2812C28.54 6.875 28.75 7.085 28.75 7.34375V7.8125C28.75 8.33 28.33 8.75 27.8125 8.75Z" fill="#33C481"/>
<path d="M10.625 7.8125V7.34375C10.625 7.085 10.835 6.875 11.0938 6.875H12.1875C12.705 6.875 13.125 7.295 13.125 7.8125V8.75H11.5625C11.045 8.75 10.625 8.33 10.625 7.8125Z" fill="#33C481"/>
<path d="M24.9781 8.125L24.3706 4.885C24.315 4.58937 24.0568 4.375 23.7562 4.375H15.6187C15.3181 4.375 15.06 4.58937 15.0044 4.885L14.3969 8.125H24.9781Z" fill="url(#paint0_linear_192_1059)"/>
<path d="M5.625 20V18.125H2.5V20C2.5 20.345 2.78 20.625 3.125 20.625H5C5.345 20.625 5.625 20.345 5.625 20Z" fill="#565B5E"/>
<path d="M18.125 20V18.125H15V20C15 20.345 15.28 20.625 15.625 20.625H17.5C17.845 20.625 18.125 20.345 18.125 20Z" fill="#565B5E"/>
<path d="M16.875 11.875L16.2244 8.40437C16.0581 7.5175 15.2838 6.875 14.3813 6.875H6.24375C5.34125 6.875 4.56687 7.5175 4.40062 8.40437L3.75 11.875L3.04938 12.5756C2.6975 12.9275 2.5 13.4044 2.5 13.9019V18.75H18.125V13.9019C18.125 13.4044 17.9275 12.9275 17.5756 12.5763L16.875 11.875Z" fill="url(#paint1_linear_192_1059)"/>
<path d="M15.9375 15.625C16.4553 15.625 16.875 15.2053 16.875 14.6875C16.875 14.1697 16.4553 13.75 15.9375 13.75C15.4197 13.75 15 14.1697 15 14.6875C15 15.2053 15.4197 15.625 15.9375 15.625Z" fill="white"/>
<path d="M4.6875 15.625C5.20527 15.625 5.625 15.2053 5.625 14.6875C5.625 14.1697 5.20527 13.75 4.6875 13.75C4.16973 13.75 3.75 14.1697 3.75 14.6875C3.75 15.2053 4.16973 15.625 4.6875 15.625Z" fill="white"/>
<path d="M18.4375 12.5H16.875V11.5625C16.875 11.045 17.295 10.625 17.8125 10.625H18.9062C19.165 10.625 19.375 10.835 19.375 11.0938V11.5625C19.375 12.08 18.955 12.5 18.4375 12.5Z" fill="url(#paint2_linear_192_1059)"/>
<path d="M1.25 11.5625V11.0938C1.25 10.835 1.46 10.625 1.71875 10.625H2.8125C3.33 10.625 3.75 11.045 3.75 11.5625V12.5H2.1875C1.67 12.5 1.25 12.08 1.25 11.5625Z" fill="url(#paint3_linear_192_1059)"/>
<path d="M15.6031 11.875L14.9956 8.635C14.94 8.33937 14.6818 8.125 14.3812 8.125H6.24373C5.9431 8.125 5.68498 8.33937 5.62935 8.635L5.02185 11.875H15.6031Z" fill="url(#paint4_linear_192_1059)"/>
<path d="M13.125 26.25V24.375H10V26.25C10 26.595 10.28 26.875 10.625 26.875H12.5C12.845 26.875 13.125 26.595 13.125 26.25Z" fill="#565B5E"/>
<path d="M25.625 26.25V24.375H22.5V26.25C22.5 26.595 22.78 26.875 23.125 26.875H25C25.345 26.875 25.625 26.595 25.625 26.25Z" fill="#565B5E"/>
<path d="M24.375 18.125L23.7244 14.6544C23.5581 13.7675 22.7837 13.125 21.8812 13.125H13.7437C12.8412 13.125 12.0669 13.7675 11.9006 14.6544L11.25 18.125L10.5494 18.8256C10.1975 19.1775 10 19.6544 10 20.1519V25H25.625V20.1519C25.625 19.6544 25.4275 19.1775 25.0756 18.8263L24.375 18.125Z" fill="url(#paint5_linear_192_1059)"/>
<path d="M23.4375 21.875C23.9553 21.875 24.375 21.4553 24.375 20.9375C24.375 20.4197 23.9553 20 23.4375 20C22.9197 20 22.5 20.4197 22.5 20.9375C22.5 21.4553 22.9197 21.875 23.4375 21.875Z" fill="white"/>
<path d="M12.1875 21.875C12.7053 21.875 13.125 21.4553 13.125 20.9375C13.125 20.4197 12.7053 20 12.1875 20C11.6697 20 11.25 20.4197 11.25 20.9375C11.25 21.4553 11.6697 21.875 12.1875 21.875Z" fill="white"/>
<path d="M14.4375 21.875L14.8731 22.9644C15.0631 23.4388 15.5225 23.75 16.0337 23.75H19.5913C20.1025 23.75 20.5619 23.4388 20.7519 22.9644L21.1875 21.875H14.4375Z" fill="url(#paint6_linear_192_1059)"/>
<path d="M25.9375 18.75H24.375V17.8125C24.375 17.295 24.795 16.875 25.3125 16.875H26.4062C26.665 16.875 26.875 17.085 26.875 17.3438V17.8125C26.875 18.33 26.455 18.75 25.9375 18.75Z" fill="url(#paint7_linear_192_1059)"/>
<path d="M8.75 17.8125V17.3438C8.75 17.085 8.96 16.875 9.21875 16.875H10.3125C10.83 16.875 11.25 17.295 11.25 17.8125V18.75H9.6875C9.17 18.75 8.75 18.33 8.75 17.8125Z" fill="url(#paint8_linear_192_1059)"/>
<path d="M23.1031 18.125L22.4956 14.885C22.44 14.5894 22.1818 14.375 21.8812 14.375H13.7437C13.4431 14.375 13.185 14.5894 13.1294 14.885L12.5219 18.125H23.1031Z" fill="url(#paint9_linear_192_1059)"/>
<defs>
<linearGradient id="paint0_linear_192_1059" x1="18.8356" y1="4.8425" x2="20.0594" y2="8.535" gradientUnits="userSpaceOnUse">
<stop stop-color="#3079D6"/>
<stop offset="1" stop-color="#297CD2"/>
</linearGradient>
<linearGradient id="paint1_linear_192_1059" x1="9.3475" y1="7.04875" x2="10.5787" y2="18.8238" gradientUnits="userSpaceOnUse">
<stop stop-color="#F44F5A"/>
<stop offset="0.443" stop-color="#EE3D4A"/>
<stop offset="1" stop-color="#E52030"/>
</linearGradient>
<linearGradient id="paint2_linear_192_1059" x1="16.8537" y1="5.43438" x2="19.1369" y2="16.8188" gradientUnits="userSpaceOnUse">
<stop stop-color="#F44F5A"/>
<stop offset="0.443" stop-color="#EE3D4A"/>
<stop offset="1" stop-color="#E52030"/>
</linearGradient>
<linearGradient id="paint3_linear_192_1059" x1="1.87375" y1="8.43875" x2="4.15625" y2="19.8231" gradientUnits="userSpaceOnUse">
<stop stop-color="#F44F5A"/>
<stop offset="0.443" stop-color="#EE3D4A"/>
<stop offset="1" stop-color="#E52030"/>
</linearGradient>
<linearGradient id="paint4_linear_192_1059" x1="9.4606" y1="8.5925" x2="10.6844" y2="12.285" gradientUnits="userSpaceOnUse">
<stop stop-color="#3079D6"/>
<stop offset="1" stop-color="#297CD2"/>
</linearGradient>
<linearGradient id="paint5_linear_192_1059" x1="15.4075" y1="13.0912" x2="18.4563" y2="24.9637" gradientUnits="userSpaceOnUse">
<stop stop-color="#42A3F2"/>
<stop offset="1" stop-color="#42A4EB"/>
</linearGradient>
<linearGradient id="paint6_linear_192_1059" x1="14.4375" y1="22.8125" x2="21.1875" y2="22.8125" gradientUnits="userSpaceOnUse">
<stop stop-color="#3079D6"/>
<stop offset="1" stop-color="#297CD2"/>
</linearGradient>
<linearGradient id="paint7_linear_192_1059" x1="24.375" y1="17.8125" x2="26.875" y2="17.8125" gradientUnits="userSpaceOnUse">
<stop stop-color="#42A3F2"/>
<stop offset="1" stop-color="#42A4EB"/>
</linearGradient>
<linearGradient id="paint8_linear_192_1059" x1="11.25" y1="17.8125" x2="8.75" y2="17.8125" gradientUnits="userSpaceOnUse">
<stop stop-color="#42A3F2"/>
<stop offset="1" stop-color="#42A4EB"/>
</linearGradient>
<linearGradient id="paint9_linear_192_1059" x1="16.9606" y1="14.8425" x2="18.1844" y2="18.535" gradientUnits="userSpaceOnUse">
<stop stop-color="#3079D6"/>
<stop offset="1" stop-color="#297CD2"/>
</linearGradient>
</defs>
</svg>
